<?xml version="1.0" encoding="iso-8859-1"?>
<!-- Uploaded to: SVG Repo, www.svgrepo.com, Generator: SVG Repo Mixer Tools -->
<svg height="800px" width="800px" version="1.1" id="Capa_1" xmlns="http://www.w3.org/2000/svg" xmlns:xlink="http://www.w3.org/1999/xlink" 
	 viewBox="0 0 30.196 30.196" xml:space="preserve">
<g>
	<path style="fill:#030104;" d="M15.098,8.182c1.188,0,2.305,0.301,3.283,0.828l4.575-6.783C20.666,0.822,17.982,0,15.098,0
		c-2.842,0-5.491,0.801-7.761,2.166l4.917,6.633C13.123,8.406,14.082,8.182,15.098,8.182z"/>
	<path style="fill:#030104;" d="M20.297,19.648l4.918,6.631c2.731-2.471,4.559-5.918,4.91-9.803h-8.25
		C21.633,17.676,21.074,18.76,20.297,19.648z"/>
	<path style="fill:#030104;" d="M21.934,14.098h8.211c-0.275-4.191-2.25-7.914-5.256-10.48l-4.64,6.879
		C21.133,11.482,21.733,12.723,21.934,14.098z"/>
	<path style="fill:#030104;" d="M8.32,16.477H0.071c0.398,4.396,2.683,8.234,6.037,10.73l4.576-6.787
		C9.493,19.432,8.639,18.051,8.32,16.477z"/>
	<path style="fill:#030104;" d="M10.283,10.137L5.392,3.541C2.338,6.107,0.329,9.863,0.051,14.098h8.211
		C8.488,12.553,9.216,11.174,10.283,10.137z"/>
	<path style="fill:#030104;" d="M15.098,22.014c-0.822,0-1.607-0.15-2.339-0.414L8.12,28.477c2.088,1.092,4.458,1.719,6.978,1.719
		c3.041,0,5.867-0.906,8.237-2.453l-4.89-6.596C17.453,21.697,16.313,22.014,15.098,22.014z"/>
</g>
</svg>